<svg width="300" height="250" viewBox="0 0 300 250" fill="none" xmlns="http://www.w3.org/2000/svg">
<path fill-rule="evenodd" clip-rule="evenodd" d="M194.206 174.171C195.655 177.074 199.776 177.135 201.309 174.275L291.63 5.89073C293.06 3.22601 291.129 -1.52588e-05 288.105 -1.52588e-05L113.727 -1.52588e-05C110.754 -1.52588e-05 108.82 3.12711 110.148 5.78656L194.206 174.171ZM196.89 135.281C198.402 138.081 202.418 138.081 203.93 135.281L247.461 54.6442C248.899 51.9792 246.969 48.7441 243.941 48.7441L156.879 48.7441C153.851 48.7441 151.921 51.9792 153.359 54.6442L196.89 135.281Z" fill="#553730"/>
<path fill-rule="evenodd" clip-rule="evenodd" d="M103.779 45.8288C102.33 42.9257 98.2091 42.8653 96.6754 45.7246L6.35425 214.109C4.9249 216.774 6.85529 220 9.87917 220H184.258C187.23 220 189.164 216.873 187.837 214.213L103.779 45.8288ZM101.771 116.379C100.346 113.266 95.9225 113.266 94.4971 116.379L60.6274 190.354C59.4144 193.003 61.3504 196.019 64.2643 196.019H132.004C134.918 196.019 136.854 193.003 135.641 190.354L101.771 116.379Z" fill="#553730"/>
</svg>
