<svg width="301" height="251" viewBox="0 0 301 251" fill="none" xmlns="http://www.w3.org/2000/svg">
<path fill-rule="evenodd" clip-rule="evenodd" d="M195.206 175.171C196.655 178.074 200.776 178.135 202.309 175.275L292.63 6.89073C294.06 4.22601 292.129 0.999985 289.105 0.999985L114.727 0.999985C111.754 0.999985 109.82 4.12711 111.148 6.78656L195.206 175.171ZM197.89 136.281C199.402 139.081 203.418 139.081 204.93 136.281L248.461 55.6442C249.899 52.9792 247.969 49.7441 244.941 49.7441L157.879 49.7441C154.851 49.7441 152.921 52.9792 154.359 55.6442L197.89 136.281Z" fill="#553730"/>
<path fill-rule="evenodd" clip-rule="evenodd" d="M104.779 46.8288C103.33 43.9257 99.2091 43.8653 97.6754 46.7246L7.35425 215.109C5.9249 217.774 7.85529 221 10.8792 221H185.258C188.23 221 190.164 217.873 188.837 215.213L104.779 46.8288ZM102.771 117.379C101.346 114.266 96.9225 114.266 95.4971 117.379L61.6274 191.354C60.4144 194.003 62.3504 197.019 65.2643 197.019H133.004C135.918 197.019 137.854 194.003 136.641 191.354L102.771 117.379Z" fill="#553730"/>
<path d="M78.3823 1H5C2.79086 1 1 2.79086 1 5V144.776C1 148.954 6.59947 150.334 8.5416 146.635L81.9239 6.85934C83.3222 4.19586 81.3905 1 78.3823 1Z" fill="#553730" stroke="#553730"/>
</svg>
