<svg width="15" height="26" viewBox="0 0 15 26" fill="none" xmlns="http://www.w3.org/2000/svg">
<mask id="path-1-inside-1_108:9" fill="white">
<path fill-rule="evenodd" clip-rule="evenodd" d="M14 26C14.82 26 15.1062 24.9517 14.5243 24.3739C11.7541 21.6231 10 17.5479 10 13C10 8.45209 11.7541 4.37692 14.5243 1.62608C15.1062 1.04828 14.82 0 14 0V0C6.26801 0 0 5.8203 0 13C0 20.1797 6.26801 26 14 26V26Z"/>
</mask>
<path d="M14.5243 24.3739L13.115 25.7931L14.5243 24.3739ZM15.9335 22.9548C13.5586 20.5964 12 17.0397 12 13H8C8 18.0561 9.94963 22.6498 13.115 25.7931L15.9335 22.9548ZM12 13C12 8.96032 13.5586 5.40359 15.9336 3.04523L13.115 0.206917C9.94963 3.35024 8 7.94387 8 13H12ZM2 13C2 7.06186 7.23042 2 14 2V-2C5.30561 -2 -2 4.57873 -2 13H2ZM14 24C7.23042 24 2 18.9381 2 13H-2C-2 21.4213 5.30561 28 14 28V24ZM15.9336 3.04523C16.7858 2.19895 17.0028 1.00915 16.7019 0.0163224C16.385 -1.02935 15.4217 -2 14 -2V2C13.7562 2 13.4829 1.91412 13.2541 1.72961C13.0402 1.55703 12.9261 1.3489 12.8738 1.17641C12.7755 0.852167 12.8447 0.475408 13.115 0.206917L15.9336 3.04523ZM13.115 25.7931C12.8447 25.5246 12.7755 25.1478 12.8738 24.8236C12.9261 24.6511 13.0402 24.443 13.2541 24.2704C13.4829 24.0859 13.7562 24 14 24V28C15.4217 28 16.385 27.0293 16.7019 25.9837C17.0028 24.9908 16.7858 23.8011 15.9335 22.9548L13.115 25.7931Z" fill="#3E2723" fill-opacity="0.83" mask="url(#path-1-inside-1_108:9)"/>
</svg>
