<svg width="435" height="312" viewBox="0 0 435 312" fill="none" xmlns="http://www.w3.org/2000/svg">
<path d="M15.2031 53V1.8125H30.3203C34.8438 1.8125 38.8516 2.82031 42.3438 4.83594C45.8594 6.85156 48.5781 9.71094 50.5 13.4141C52.4219 17.1172 53.3828 21.3594 53.3828 26.1406V28.707C53.3828 33.5586 52.4102 37.8242 50.4648 41.5039C48.543 45.1836 45.7891 48.0195 42.2031 50.0117C38.6406 52.0039 34.5508 53 29.9336 53H15.2031ZM24.0977 8.98438V45.8984H29.8984C34.5625 45.8984 38.1367 44.4453 40.6211 41.5391C43.1289 38.6094 44.4062 34.4141 44.4531 28.9531V26.1055C44.4531 20.5508 43.2461 16.3086 40.832 13.3789C38.418 10.4492 34.9141 8.98438 30.3203 8.98438H24.0977ZM78.168 53.7031C72.7539 53.7031 68.3594 52.0039 64.9844 48.6055C61.6328 45.1836 59.957 40.6367 59.957 34.9648V33.9102C59.957 30.1133 60.6836 26.7266 62.1367 23.75C63.6133 20.75 65.6758 18.418 68.3242 16.7539C70.9727 15.0898 73.9258 14.2578 77.1836 14.2578C82.3633 14.2578 86.3594 15.9102 89.1719 19.2148C92.0078 22.5195 93.4258 27.1953 93.4258 33.2422V36.6875H68.5703C68.8281 39.8281 69.8711 42.3125 71.6992 44.1406C73.5508 45.9688 75.8711 46.8828 78.6602 46.8828C82.5742 46.8828 85.7617 45.3008 88.2227 42.1367L92.8281 46.5312C91.3047 48.8047 89.2656 50.5742 86.7109 51.8398C84.1797 53.082 81.332 53.7031 78.168 53.7031ZM77.1484 21.1133C74.8047 21.1133 72.9062 21.9336 71.4531 23.5742C70.0234 25.2148 69.1094 27.5 68.7109 30.4297H84.9883V29.7969C84.8008 26.9375 84.0391 24.7812 82.7031 23.3281C81.3672 21.8516 79.5156 21.1133 77.1484 21.1133ZM121.41 42.6641C121.41 41.1406 120.777 39.9805 119.512 39.1836C118.27 38.3867 116.195 37.6836 113.289 37.0742C110.383 36.4648 107.957 35.6914 106.012 34.7539C101.746 32.6914 99.6133 29.7031 99.6133 25.7891C99.6133 22.5078 100.996 19.7656 103.762 17.5625C106.527 15.3594 110.043 14.2578 114.309 14.2578C118.855 14.2578 122.523 15.3828 125.312 17.6328C128.125 19.8828 129.531 22.8008 129.531 26.3867H120.988C120.988 24.7461 120.379 23.3867 119.16 22.3086C117.941 21.207 116.324 20.6562 114.309 20.6562C112.434 20.6562 110.898 21.0898 109.703 21.957C108.531 22.8242 107.945 23.9844 107.945 25.4375C107.945 26.75 108.496 27.7695 109.598 28.4961C110.699 29.2227 112.926 29.9609 116.277 30.7109C119.629 31.4375 122.254 32.3164 124.152 33.3477C126.074 34.3555 127.492 35.5742 128.406 37.0039C129.344 38.4336 129.812 40.168 129.812 42.207C129.812 45.6289 128.395 48.4062 125.559 50.5391C122.723 52.6484 119.008 53.7031 114.414 53.7031C111.297 53.7031 108.52 53.1406 106.082 52.0156C103.645 50.8906 101.746 49.3438 100.387 47.375C99.0273 45.4062 98.3477 43.2852 98.3477 41.0117H106.645C106.762 43.0273 107.523 44.5859 108.93 45.6875C110.336 46.7656 112.199 47.3047 114.52 47.3047C116.77 47.3047 118.48 46.8828 119.652 46.0391C120.824 45.1719 121.41 44.0469 121.41 42.6641ZM146.371 53H137.828V14.9609H146.371V53ZM137.301 5.08203C137.301 3.76953 137.711 2.67969 138.531 1.8125C139.375 0.945312 140.57 0.511719 142.117 0.511719C143.664 0.511719 144.859 0.945312 145.703 1.8125C146.547 2.67969 146.969 3.76953 146.969 5.08203C146.969 6.37109 146.547 7.44922 145.703 8.31641C144.859 9.16016 143.664 9.58203 142.117 9.58203C140.57 9.58203 139.375 9.16016 138.531 8.31641C137.711 7.44922 137.301 6.37109 137.301 5.08203ZM154.211 33.6992C154.211 27.793 155.594 23.082 158.359 19.5664C161.148 16.0273 164.84 14.2578 169.434 14.2578C173.77 14.2578 177.18 15.7695 179.664 18.793L180.051 14.9609H187.75V51.8398C187.75 56.832 186.191 60.7695 183.074 63.6523C179.98 66.5352 175.797 67.9766 170.523 67.9766C167.734 67.9766 165.004 67.3906 162.332 66.2188C159.684 65.0703 157.668 63.5586 156.285 61.6836L160.328 56.5508C162.953 59.668 166.188 61.2266 170.031 61.2266C172.867 61.2266 175.105 60.4531 176.746 58.9062C178.387 57.3828 179.207 55.1328 179.207 52.1562V49.5898C176.746 52.332 173.465 53.7031 169.363 53.7031C164.91 53.7031 161.266 51.9336 158.43 48.3945C155.617 44.8555 154.211 39.957 154.211 33.6992ZM162.719 34.4375C162.719 38.2578 163.492 41.2695 165.039 43.4727C166.609 45.6523 168.777 46.7422 171.543 46.7422C174.988 46.7422 177.543 45.2656 179.207 42.3125V25.5781C177.59 22.6953 175.059 21.2539 171.613 21.2539C168.801 21.2539 166.609 22.3672 165.039 24.5938C163.492 26.8203 162.719 30.1016 162.719 34.4375ZM204.484 14.9609L204.73 19.3555C207.543 15.957 211.234 14.2578 215.805 14.2578C223.727 14.2578 227.758 18.793 227.898 27.8633V53H219.355V28.3555C219.355 25.9414 218.828 24.1602 217.773 23.0117C216.742 21.8398 215.043 21.2539 212.676 21.2539C209.23 21.2539 206.664 22.8125 204.977 25.9297V53H196.434V14.9609H204.484ZM295.539 40.3438L303.414 1.8125H312.238L300.426 53H291.918L282.18 15.6289L272.23 53H263.688L251.875 1.8125H260.699L268.645 40.2734L278.418 1.8125H285.871L295.539 40.3438ZM337.059 22.7656C335.934 22.5781 334.773 22.4844 333.578 22.4844C329.664 22.4844 327.027 23.9844 325.668 26.9844V53H317.125V14.9609H325.281L325.492 19.2148C327.555 15.9102 330.414 14.2578 334.07 14.2578C335.289 14.2578 336.297 14.4219 337.094 14.75L337.059 22.7656ZM351.543 53H343V14.9609H351.543V53ZM342.473 5.08203C342.473 3.76953 342.883 2.67969 343.703 1.8125C344.547 0.945312 345.742 0.511719 347.289 0.511719C348.836 0.511719 350.031 0.945312 350.875 1.8125C351.719 2.67969 352.141 3.76953 352.141 5.08203C352.141 6.37109 351.719 7.44922 350.875 8.31641C350.031 9.16016 348.836 9.58203 347.289 9.58203C345.742 9.58203 344.547 9.16016 343.703 8.31641C342.883 7.44922 342.473 6.37109 342.473 5.08203ZM371.582 5.71484V14.9609H378.297V21.2891H371.582V42.5234C371.582 43.9766 371.863 45.0312 372.426 45.6875C373.012 46.3203 374.043 46.6367 375.52 46.6367C376.504 46.6367 377.5 46.5195 378.508 46.2852V52.8945C376.562 53.4336 374.688 53.7031 372.883 53.7031C366.32 53.7031 363.039 50.082 363.039 42.8398V21.2891H356.781V14.9609H363.039V5.71484H371.582ZM401.605 53.7031C396.191 53.7031 391.797 52.0039 388.422 48.6055C385.07 45.1836 383.395 40.6367 383.395 34.9648V33.9102C383.395 30.1133 384.121 26.7266 385.574 23.75C387.051 20.75 389.113 18.418 391.762 16.7539C394.41 15.0898 397.363 14.2578 400.621 14.2578C405.801 14.2578 409.797 15.9102 412.609 19.2148C415.445 22.5195 416.863 27.1953 416.863 33.2422V36.6875H392.008C392.266 39.8281 393.309 42.3125 395.137 44.1406C396.988 45.9688 399.309 46.8828 402.098 46.8828C406.012 46.8828 409.199 45.3008 411.66 42.1367L416.266 46.5312C414.742 48.8047 412.703 50.5742 410.148 51.8398C407.617 53.082 404.77 53.7031 401.605 53.7031ZM400.586 21.1133C398.242 21.1133 396.344 21.9336 394.891 23.5742C393.461 25.2148 392.547 27.5 392.148 30.4297H408.426V29.7969C408.238 26.9375 407.477 24.7812 406.141 23.3281C404.805 21.8516 402.953 21.1133 400.586 21.1133Z" fill="#212121" fill-opacity="0.83"/>
</svg>
