<svg width="435" height="301" viewBox="0 0 435 301" fill="none" xmlns="http://www.w3.org/2000/svg">
<path d="M15.2031 58V6.8125H30.3203C34.8438 6.8125 38.8516 7.82031 42.3438 9.83594C45.8594 11.8516 48.5781 14.7109 50.5 18.4141C52.4219 22.1172 53.3828 26.3594 53.3828 31.1406V33.707C53.3828 38.5586 52.4102 42.8242 50.4648 46.5039C48.543 50.1836 45.7891 53.0195 42.2031 55.0117C38.6406 57.0039 34.5508 58 29.9336 58H15.2031ZM24.0977 13.9844V50.8984H29.8984C34.5625 50.8984 38.1367 49.4453 40.6211 46.5391C43.1289 43.6094 44.4062 39.4141 44.4531 33.9531V31.1055C44.4531 25.5508 43.2461 21.3086 40.832 18.3789C38.418 15.4492 34.9141 13.9844 30.3203 13.9844H24.0977ZM78.168 58.7031C72.7539 58.7031 68.3594 57.0039 64.9844 53.6055C61.6328 50.1836 59.957 45.6367 59.957 39.9648V38.9102C59.957 35.1133 60.6836 31.7266 62.1367 28.75C63.6133 25.75 65.6758 23.418 68.3242 21.7539C70.9727 20.0898 73.9258 19.2578 77.1836 19.2578C82.3633 19.2578 86.3594 20.9102 89.1719 24.2148C92.0078 27.5195 93.4258 32.1953 93.4258 38.2422V41.6875H68.5703C68.8281 44.8281 69.8711 47.3125 71.6992 49.1406C73.5508 50.9688 75.8711 51.8828 78.6602 51.8828C82.5742 51.8828 85.7617 50.3008 88.2227 47.1367L92.8281 51.5312C91.3047 53.8047 89.2656 55.5742 86.7109 56.8398C84.1797 58.082 81.332 58.7031 78.168 58.7031ZM77.1484 26.1133C74.8047 26.1133 72.9062 26.9336 71.4531 28.5742C70.0234 30.2148 69.1094 32.5 68.7109 35.4297H84.9883V34.7969C84.8008 31.9375 84.0391 29.7812 82.7031 28.3281C81.3672 26.8516 79.5156 26.1133 77.1484 26.1133ZM121.41 47.6641C121.41 46.1406 120.777 44.9805 119.512 44.1836C118.27 43.3867 116.195 42.6836 113.289 42.0742C110.383 41.4648 107.957 40.6914 106.012 39.7539C101.746 37.6914 99.6133 34.7031 99.6133 30.7891C99.6133 27.5078 100.996 24.7656 103.762 22.5625C106.527 20.3594 110.043 19.2578 114.309 19.2578C118.855 19.2578 122.523 20.3828 125.312 22.6328C128.125 24.8828 129.531 27.8008 129.531 31.3867H120.988C120.988 29.7461 120.379 28.3867 119.16 27.3086C117.941 26.207 116.324 25.6562 114.309 25.6562C112.434 25.6562 110.898 26.0898 109.703 26.957C108.531 27.8242 107.945 28.9844 107.945 30.4375C107.945 31.75 108.496 32.7695 109.598 33.4961C110.699 34.2227 112.926 34.9609 116.277 35.7109C119.629 36.4375 122.254 37.3164 124.152 38.3477C126.074 39.3555 127.492 40.5742 128.406 42.0039C129.344 43.4336 129.812 45.168 129.812 47.207C129.812 50.6289 128.395 53.4062 125.559 55.5391C122.723 57.6484 119.008 58.7031 114.414 58.7031C111.297 58.7031 108.52 58.1406 106.082 57.0156C103.645 55.8906 101.746 54.3438 100.387 52.375C99.0273 50.4062 98.3477 48.2852 98.3477 46.0117H106.645C106.762 48.0273 107.523 49.5859 108.93 50.6875C110.336 51.7656 112.199 52.3047 114.52 52.3047C116.77 52.3047 118.48 51.8828 119.652 51.0391C120.824 50.1719 121.41 49.0469 121.41 47.6641ZM146.371 58H137.828V19.9609H146.371V58ZM137.301 10.082C137.301 8.76953 137.711 7.67969 138.531 6.8125C139.375 5.94531 140.57 5.51172 142.117 5.51172C143.664 5.51172 144.859 5.94531 145.703 6.8125C146.547 7.67969 146.969 8.76953 146.969 10.082C146.969 11.3711 146.547 12.4492 145.703 13.3164C144.859 14.1602 143.664 14.582 142.117 14.582C140.57 14.582 139.375 14.1602 138.531 13.3164C137.711 12.4492 137.301 11.3711 137.301 10.082ZM154.211 38.6992C154.211 32.793 155.594 28.082 158.359 24.5664C161.148 21.0273 164.84 19.2578 169.434 19.2578C173.77 19.2578 177.18 20.7695 179.664 23.793L180.051 19.9609H187.75V56.8398C187.75 61.832 186.191 65.7695 183.074 68.6523C179.98 71.5352 175.797 72.9766 170.523 72.9766C167.734 72.9766 165.004 72.3906 162.332 71.2188C159.684 70.0703 157.668 68.5586 156.285 66.6836L160.328 61.5508C162.953 64.668 166.188 66.2266 170.031 66.2266C172.867 66.2266 175.105 65.4531 176.746 63.9062C178.387 62.3828 179.207 60.1328 179.207 57.1562V54.5898C176.746 57.332 173.465 58.7031 169.363 58.7031C164.91 58.7031 161.266 56.9336 158.43 53.3945C155.617 49.8555 154.211 44.957 154.211 38.6992ZM162.719 39.4375C162.719 43.2578 163.492 46.2695 165.039 48.4727C166.609 50.6523 168.777 51.7422 171.543 51.7422C174.988 51.7422 177.543 50.2656 179.207 47.3125V30.5781C177.59 27.6953 175.059 26.2539 171.613 26.2539C168.801 26.2539 166.609 27.3672 165.039 29.5938C163.492 31.8203 162.719 35.1016 162.719 39.4375ZM204.484 19.9609L204.73 24.3555C207.543 20.957 211.234 19.2578 215.805 19.2578C223.727 19.2578 227.758 23.793 227.898 32.8633V58H219.355V33.3555C219.355 30.9414 218.828 29.1602 217.773 28.0117C216.742 26.8398 215.043 26.2539 212.676 26.2539C209.23 26.2539 206.664 27.8125 204.977 30.9297V58H196.434V19.9609H204.484ZM295.539 45.3438L303.414 6.8125H312.238L300.426 58H291.918L282.18 20.6289L272.23 58H263.688L251.875 6.8125H260.699L268.645 45.2734L278.418 6.8125H285.871L295.539 45.3438ZM337.059 27.7656C335.934 27.5781 334.773 27.4844 333.578 27.4844C329.664 27.4844 327.027 28.9844 325.668 31.9844V58H317.125V19.9609H325.281L325.492 24.2148C327.555 20.9102 330.414 19.2578 334.07 19.2578C335.289 19.2578 336.297 19.4219 337.094 19.75L337.059 27.7656ZM351.543 58H343V19.9609H351.543V58ZM342.473 10.082C342.473 8.76953 342.883 7.67969 343.703 6.8125C344.547 5.94531 345.742 5.51172 347.289 5.51172C348.836 5.51172 350.031 5.94531 350.875 6.8125C351.719 7.67969 352.141 8.76953 352.141 10.082C352.141 11.3711 351.719 12.4492 350.875 13.3164C350.031 14.1602 348.836 14.582 347.289 14.582C345.742 14.582 344.547 14.1602 343.703 13.3164C342.883 12.4492 342.473 11.3711 342.473 10.082ZM371.582 10.7148V19.9609H378.297V26.2891H371.582V47.5234C371.582 48.9766 371.863 50.0312 372.426 50.6875C373.012 51.3203 374.043 51.6367 375.52 51.6367C376.504 51.6367 377.5 51.5195 378.508 51.2852V57.8945C376.562 58.4336 374.688 58.7031 372.883 58.7031C366.32 58.7031 363.039 55.082 363.039 47.8398V26.2891H356.781V19.9609H363.039V10.7148H371.582ZM401.605 58.7031C396.191 58.7031 391.797 57.0039 388.422 53.6055C385.07 50.1836 383.395 45.6367 383.395 39.9648V38.9102C383.395 35.1133 384.121 31.7266 385.574 28.75C387.051 25.75 389.113 23.418 391.762 21.7539C394.41 20.0898 397.363 19.2578 400.621 19.2578C405.801 19.2578 409.797 20.9102 412.609 24.2148C415.445 27.5195 416.863 32.1953 416.863 38.2422V41.6875H392.008C392.266 44.8281 393.309 47.3125 395.137 49.1406C396.988 50.9688 399.309 51.8828 402.098 51.8828C406.012 51.8828 409.199 50.3008 411.66 47.1367L416.266 51.5312C414.742 53.8047 412.703 55.5742 410.148 56.8398C407.617 58.082 404.77 58.7031 401.605 58.7031ZM400.586 26.1133C398.242 26.1133 396.344 26.9336 394.891 28.5742C393.461 30.2148 392.547 32.5 392.148 35.4297H408.426V34.7969C408.238 31.9375 407.477 29.7812 406.141 28.3281C404.805 26.8516 402.953 26.1133 400.586 26.1133Z" fill="#212121" fill-opacity="0.65"/>
</svg>
