<svg width="64" height="60" viewBox="0 0 64 60" fill="none" xmlns="http://www.w3.org/2000/svg">
<ellipse class="logo-ellipse" cx="32" cy="30" rx="32" ry="30" fill="#FF5722" fill-opacity="0.4"/>
<path d="M24.25 24.975C24.6252 24.2548 25.8408 24.2669 26.2047 24.9945L37.769 48.1181C38.0672 48.7144 37.5468 49.3704 36.7818 49.3628L13.2915 49.128C12.5265 49.1203 12.0165 48.454 12.324 47.8638L24.25 24.975Z" fill="#BF360C"/>
<path d="M23.1971 36.4684C23.9227 35.0366 26.446 35.0618 27.1489 36.5079L30.9193 44.2639C31.4708 45.3983 30.4314 46.6166 28.9249 46.6016L21.2628 46.525C19.7563 46.5099 18.7362 45.271 19.3054 44.1478L23.1971 36.4684Z" fill="#FFCCBC" fill-opacity="0.83"/>
<path d="M10.1449 41.3908L22.7391 16.3947C22.9022 16.0709 23.292 15.8592 23.725 15.8592L52.3848 15.8592C53.1404 15.8592 53.6554 16.477 53.3708 17.0421L40.7766 42.0381C40.6135 42.3619 40.2236 42.5736 39.7906 42.5736L11.1309 42.5736C10.3752 42.5736 9.86025 41.9558 10.1449 41.3908Z" fill="#FFCCBC" fill-opacity="0.77"/>
<path fill-rule="evenodd" clip-rule="evenodd" d="M21.7531 16.071C22.0794 15.4235 22.8591 15 23.7251 15L52.3848 15C53.8961 15 54.9261 16.2357 54.3568 17.3657L41.7626 42.3618C41.4363 43.0093 40.6567 43.4328 39.7907 43.4328L11.1309 43.4328C9.61964 43.4328 8.58964 42.1971 9.15899 41.0671L21.7531 16.071ZM52.3848 16.7184L23.7251 16.7184L11.1309 41.7144L39.7907 41.7144L52.3848 16.7184Z" fill="#BF360C" stroke="#BF360C" stroke-width="1.5"/>
<path d="M24.2691 25.0958C24.638 24.3935 25.8769 24.4059 26.2348 25.1155L32.9854 38.502C33.2722 39.0707 32.7523 39.6886 31.9932 39.681L18.2826 39.5439C17.5235 39.5363 17.0134 38.9082 17.3091 38.3453L24.2691 25.0958Z" fill="#BF360C"/>
<path d="M37.5388 35.462C37.1698 36.1643 35.931 36.1519 35.5731 35.4423L28.8224 22.0558C28.5356 21.4871 29.0556 20.8692 29.8146 20.8768L43.5253 21.0139C44.2843 21.0215 44.7945 21.6496 44.4988 22.2125L37.5388 35.462Z" fill="#BF360C"/>
<path d="M25.2441 33.8106L28.7091 39.9185L21.6836 39.8482L25.2441 33.8106Z" fill="#FFCCBC" fill-opacity="0.83"/>
</svg>
